<?xml version="1.0" encoding="utf-8"?>
<!-- Generator: Adobe Illustrator 21.0.2, SVG Export Plug-In . SVG Version: 6.00 Build 0)  -->
<svg version="1.1" id="Layer_1" xmlns="http://www.w3.org/2000/svg" xmlns:xlink="http://www.w3.org/1999/xlink" x="0px" y="0px"
	 width="593.8px" height="209.7px" viewBox="0 0 593.8 209.7" style="enable-background:new 0 0 593.8 209.7;" xml:space="preserve"
	>
<style type="text/css">
	.Drop_x0020_Shadow{fill:none;}
	.Outer_x0020_Glow_x0020_5_x0020_pt{fill:none;}
	.Blue_x0020_Neon{fill:none;stroke:#8AACDA;stroke-width:7;stroke-linecap:round;stroke-linejoin:round;}
	.Chrome_x0020_Highlight{fill:url(#SVGID_1_);stroke:#FFFFFF;stroke-width:0.3629;stroke-miterlimit:1;}
	.Jive_GS{fill:#FFDD00;}
	.Alyssa_GS{fill:#A6D0E4;}
	.st0{fill:#ADA7A3;}
	.st1{fill:#333333;}
	.st2{fill:#0E4C87;}
	.st3{fill:#307EB2;}
	.st4{fill:none;stroke:#ADA7A3;stroke-width:8;stroke-miterlimit:10;}
	.st5{fill:#00A8DF;}
	.st6{fill:#D68728;}
	.st7{fill:none;}
	.st8{fill-rule:evenodd;clip-rule:evenodd;fill:#5F5F5F;}
	.st9{fill:#484748;}
</style>
<linearGradient id="SVGID_1_" gradientUnits="userSpaceOnUse" x1="-176.4917" y1="-130.3291" x2="-176.4917" y2="-131.3291">
	<stop  offset="0" style="stop-color:#656565"/>
	<stop  offset="0.618" style="stop-color:#1B1B1B"/>
	<stop  offset="0.6292" style="stop-color:#545454"/>
	<stop  offset="0.9831" style="stop-color:#3E3E3E"/>
</linearGradient>
<polygon class="st0" points="258.3,101.1 298,101.1 298,92.5 324.8,109.7 298.5,126.9 298.5,118.8 258.3,118.8 "/>
<g>
	<g>
		<path class="st1" d="M267.6,31.7c-0.8-0.7-1.9-1.1-3-1.1c-2.5,0-4.5,2.1-4.5,4.6c0,2.5,1.9,4.6,4.4,4.6c1.1,0,2.2-0.4,3-1.2v1.7
			c-0.9,0.5-2,0.8-3,0.8c-3.2,0-5.9-2.6-5.9-5.8c0-3.3,2.7-6,6-6c1,0,2,0.2,2.8,0.8V31.7z"/>
		<path class="st1" d="M270.7,40.8h-1.4v-13h1.4V40.8z"/>
		<path class="st1" d="M274.2,33.8v3.9c0,1.1,0.3,2.1,1.6,2.1s1.6-1,1.6-2.1v-3.9h1.3v4c0,1.9-0.9,3.2-3,3.2s-3-1.3-3-3.2v-4H274.2z
			"/>
		<path class="st1" d="M283.6,35.4c-0.2-0.3-0.5-0.6-0.9-0.6c-0.4,0-0.7,0.3-0.7,0.7c0,0.6,0.8,0.9,1.6,1.3c0.8,0.4,1.6,0.9,1.6,2
			c0,1.3-1.1,2.3-2.4,2.3c-1,0-2.1-0.6-2.4-1.6l1.2-0.5c0.3,0.5,0.6,0.9,1.3,0.9c0.6,0,1.1-0.4,1.1-1c0-0.4-0.2-0.6-0.5-0.8
			l-1.3-0.7c-0.8-0.4-1.4-0.8-1.4-1.8c0-1.1,0.9-2,2.1-2c0.9,0,1.5,0.5,1.9,1.2L283.6,35.4z"/>
		<path class="st1" d="M288.4,40.8h-1.4v-5.8h-0.7v-1.3h0.7v-2.7h1.4v2.7h1.3v1.3h-1.3V40.8z"/>
		<path class="st1" d="M291.9,37.5c0,1.2,0.8,2.3,2.1,2.3c1,0,1.6-0.5,2.1-1.4l1.1,0.6c-0.7,1.2-1.9,1.9-3.3,1.9
			c-2.1,0-3.4-1.6-3.4-3.7c0-2.2,1.2-3.8,3.4-3.8c2.2,0,3.3,1.6,3.3,3.7v0.2H291.9z M295.9,36.5c-0.2-1.1-0.9-1.8-1.9-1.8
			c-1.1,0-1.8,0.8-2,1.8H295.9z"/>
		<path class="st1" d="M300.3,35L300.3,35c0.4-0.8,1.1-1.3,2-1.3c0.4,0,0.8,0.1,1.1,0.3l-0.6,1.2c-0.2-0.2-0.5-0.3-0.8-0.3
			c-1.5,0-1.6,1.4-1.6,2.5v3.4h-1.4v-7h1.4V35z"/>
		<path class="st1" d="M306.4,30.6c0,0.5-0.4,0.9-0.9,0.9s-0.9-0.4-0.9-0.9c0-0.5,0.4-0.9,0.9-0.9S306.4,30.1,306.4,30.6z
			 M306.1,40.8h-1.3v-7h1.3V40.8z"/>
		<path class="st1" d="M309.8,34.8L309.8,34.8c0.5-0.8,1.3-1.2,2.1-1.2c2,0,2.5,1.3,2.5,3v4.2h-1.3v-4c0-1.2-0.2-2-1.5-2
			c-1.7,0-1.7,1.5-1.7,2.8v3.2h-1.3v-7h1.3V34.8z"/>
		<path class="st1" d="M323.3,40.7c0,2.4-0.7,4.2-3.4,4.2c-2,0-3.4-1.2-3.4-3.2h1.3c0,1.3,0.9,2,2.1,2c1.7,0,2-1.1,2-2.6v-1.3h0
			c-0.5,0.8-1.4,1.3-2.4,1.3c-2.2,0-3.4-1.8-3.4-3.8c0-1.9,1.3-3.7,3.3-3.7c1,0,1.9,0.5,2.4,1.4h0v-1.2h1.3V40.7z M322.1,37.3
			c0-1.4-0.8-2.5-2.3-2.5c-1.4,0-2.2,1.2-2.2,2.5c0,1.3,0.8,2.5,2.2,2.5C321.2,39.9,322.1,38.7,322.1,37.3z"/>
		<path class="st1" d="M256.5,58.8h-1.4V47.5h1.6c3.5,0,4.6,1.2,4.6,3.3c0,2.4-1.8,3.3-4,3.3h-0.8V58.8z M256.5,52.8h0.5
			c1.4,0,3-0.3,3-2.1c0-1.8-1.7-2-3.1-2h-0.4V52.8z"/>
		<path class="st1" d="M269,58.8h-1.4v-1.1h0c-0.5,0.8-1.4,1.3-2.4,1.3c-2.1,0-3.4-1.8-3.4-3.8c0-1.9,1.3-3.7,3.3-3.7
			c1,0,1.9,0.5,2.4,1.4h0v-1.2h1.4V58.8z M267.7,55.3c0-1.4-0.8-2.5-2.3-2.5c-1.4,0-2.2,1.2-2.2,2.5c0,1.3,0.8,2.5,2.2,2.5
			C266.9,57.9,267.7,56.7,267.7,55.3z"/>
		<path class="st1" d="M272.7,58.8h-1.4v-5.8h-0.7v-1.3h0.7v-2.7h1.4v2.7h1.3v1.3h-1.3V58.8z"/>
		<path class="st1" d="M277.1,58.8h-1.4v-5.8H275v-1.3h0.7v-2.7h1.4v2.7h1.3v1.3h-1.3V58.8z"/>
		<path class="st1" d="M280.5,55.5c0,1.2,0.8,2.3,2.1,2.3c1,0,1.6-0.5,2.1-1.4l1.1,0.6c-0.7,1.2-1.9,1.9-3.3,1.9
			c-2.1,0-3.4-1.6-3.4-3.7c0-2.2,1.2-3.8,3.4-3.8c2.2,0,3.3,1.6,3.3,3.7v0.2H280.5z M284.5,54.5c-0.2-1.1-0.9-1.8-1.9-1.8
			c-1.1,0-1.8,0.8-2,1.8H284.5z"/>
		<path class="st1" d="M288.9,53L288.9,53c0.4-0.8,1.1-1.3,2-1.3c0.4,0,0.8,0.1,1.1,0.3l-0.6,1.2c-0.2-0.2-0.5-0.3-0.8-0.3
			c-1.5,0-1.6,1.4-1.6,2.5v3.4h-1.4v-7h1.4V53z"/>
		<path class="st1" d="M294.6,52.8L294.6,52.8c0.5-0.8,1.3-1.2,2.1-1.2c2,0,2.5,1.3,2.5,3v4.2h-1.3v-4c0-1.2-0.2-2-1.5-2
			c-1.7,0-1.7,1.5-1.7,2.8v3.2h-1.3v-7h1.3V52.8z"/>
		<path class="st1" d="M304.1,53.4c-0.2-0.3-0.5-0.6-0.9-0.6c-0.4,0-0.7,0.3-0.7,0.7c0,0.6,0.8,0.9,1.6,1.3c0.8,0.4,1.6,0.9,1.6,2
			c0,1.3-1.1,2.3-2.4,2.3c-1,0-2.1-0.6-2.4-1.6L302,57c0.3,0.5,0.6,0.9,1.3,0.9c0.6,0,1.1-0.4,1.1-1c0-0.4-0.2-0.6-0.5-0.8l-1.3-0.7
			c-0.8-0.4-1.4-0.8-1.4-1.8c0-1.1,0.9-2,2.1-2c0.9,0,1.5,0.5,1.9,1.2L304.1,53.4z"/>
		<path class="st1" d="M314.5,48.6c0,0.5-0.4,0.9-0.9,0.9s-0.9-0.4-0.9-0.9c0-0.5,0.4-0.9,0.9-0.9S314.5,48.1,314.5,48.6z
			 M314.2,58.8h-1.3v-7h1.3V58.8z"/>
		<path class="st1" d="M317.9,52.8L317.9,52.8c0.5-0.8,1.3-1.2,2.1-1.2c2,0,2.5,1.3,2.5,3v4.2h-1.3v-4c0-1.2-0.2-2-1.5-2
			c-1.7,0-1.7,1.5-1.7,2.8v3.2h-1.3v-7h1.3V52.8z"/>
		<path class="st1" d="M265.2,76.8h-1.4v-5.8h-0.7v-1.3h0.7v-2.7h1.4v2.7h1.3v1.3h-1.3V76.8z"/>
		<path class="st1" d="M269.1,63.8v6.9h0c0.4-0.8,1.3-1.2,2.1-1.2c2,0,2.5,1.3,2.5,3v4.2h-1.3v-4c0-1.2-0.2-2-1.5-2
			c-1.7,0-1.7,1.5-1.7,2.8v3.2h-1.3v-13H269.1z"/>
		<path class="st1" d="M276.9,73.5c0,1.2,0.8,2.3,2.1,2.3c1,0,1.6-0.5,2.1-1.4l1.1,0.6c-0.7,1.2-1.9,1.9-3.3,1.9
			c-2.1,0-3.4-1.6-3.4-3.7c0-2.2,1.2-3.8,3.4-3.8c2.2,0,3.3,1.6,3.3,3.7v0.2H276.9z M280.9,72.5c-0.2-1.1-0.9-1.8-1.9-1.8
			c-1.1,0-1.8,0.8-2,1.8H280.9z"/>
		<path class="st1" d="M289,65.5h2.3c3.5,0,6.3,1.8,6.3,5.6c0,3.9-2.8,5.7-6.4,5.7H289V65.5z M290.4,75.5h0.5c2.9,0,5.4-1.1,5.4-4.4
			c0-3.3-2.5-4.4-5.4-4.4h-0.5V75.5z"/>
		<path class="st1" d="M306,76.8h-1.3v-1.1h0c-0.5,0.8-1.4,1.3-2.4,1.3c-2.1,0-3.4-1.8-3.4-3.8c0-1.9,1.3-3.7,3.3-3.7
			c1,0,1.9,0.5,2.4,1.4h0v-1.2h1.3V76.8z M304.7,73.3c0-1.4-0.8-2.5-2.3-2.5c-1.4,0-2.2,1.2-2.2,2.5c0,1.3,0.8,2.5,2.2,2.5
			C303.9,75.9,304.7,74.7,304.7,73.3z"/>
		<path class="st1" d="M309.7,76.8h-1.3v-5.8h-0.7v-1.3h0.7v-2.7h1.3v2.7h1.3v1.3h-1.3V76.8z"/>
		<path class="st1" d="M318.9,76.8h-1.3v-1.1h0c-0.5,0.8-1.4,1.3-2.4,1.3c-2.1,0-3.4-1.8-3.4-3.8c0-1.9,1.3-3.7,3.3-3.7
			c1,0,1.9,0.5,2.4,1.4h0v-1.2h1.3V76.8z M317.6,73.3c0-1.4-0.8-2.5-2.3-2.5c-1.4,0-2.2,1.2-2.2,2.5c0,1.3,0.8,2.5,2.2,2.5
			C316.8,75.9,317.6,74.7,317.6,73.3z"/>
	</g>
</g>
<g>
	<g>
		<g>
			<path class="st2" d="M28.4,12"/>
			<path class="st2" d="M4.4,12"/>
		</g>
	</g>
	<g>
		<g>
			<path class="st2" d="M189.8,188.2"/>
			<path class="st2" d="M189.8,164.2"/>
		</g>
	</g>
	<rect x="54" y="29.2" class="st3" width="16" height="16"/>
	<rect x="72.9" y="37.2" class="st3" width="16" height="16"/>
	<rect x="38.1" y="45.2" class="st3" width="16" height="16"/>
	<rect x="60" y="60.1" class="st3" width="16" height="16"/>
	<rect x="35.3" y="68.1" class="st3" width="16" height="16"/>
	<rect x="142.7" y="37.2" class="st3" width="16" height="16"/>
	<rect x="119.5" y="60.1" class="st3" width="16" height="16"/>
	<rect x="158.6" y="61.1" class="st3" width="16" height="16"/>
	<rect x="139.7" y="82.1" class="st3" width="16" height="16"/>
	<rect x="166.6" y="90.1" class="st3" width="16" height="16"/>
	<rect x="78.9" y="135" class="st3" width="16" height="16"/>
	<rect x="108.3" y="123.1" class="st3" width="16" height="16"/>
	<rect x="119.5" y="143.5" class="st3" width="16" height="16"/>
	<line class="st4" x1="16.6" y1="8" x2="16.6" y2="191.7"/>
	<line class="st4" x1="196.2" y1="176.2" x2="0" y2="176.2"/>
	<polyline class="st0" points="189.8,188.2 202.6,176.2 189.8,164.2 	"/>
	<polyline class="st0" points="28.4,12 16.4,0 4.4,12 	"/>
</g>
<g>
	<g>
		<g>
			<path class="st2" d="M419.7,12"/>
			<path class="st2" d="M395.7,12"/>
		</g>
	</g>
	<line class="st4" x1="407.7" y1="8" x2="407.7" y2="191.7"/>
	<g>
		<g>
			<path class="st2" d="M581,188.2"/>
			<path class="st2" d="M581,164.2"/>
		</g>
	</g>
	<line class="st4" x1="587.2" y1="176.2" x2="391.1" y2="176.2"/>
	<g>
		<g>
			<path class="st2" d="M432.3,119.2"/>
			<path class="st2" d="M432.3,95.2"/>
		</g>
	</g>
	<rect x="444.8" y="30.9" class="st2" width="16" height="16"/>
	<rect x="463.6" y="38.9" class="st2" width="16" height="16"/>
	<rect x="428.8" y="46.9" class="st2" width="16" height="16"/>
	<rect x="450.8" y="61.8" class="st2" width="16" height="16"/>
	<rect x="426.1" y="69.8" class="st2" width="16" height="16"/>
	<rect x="533.4" y="38.9" class="st5" width="16" height="16"/>
	<rect x="510.3" y="61.8" class="st5" width="16" height="16"/>
	<rect x="549.4" y="62.8" class="st5" width="16" height="16"/>
	<rect x="530.5" y="83.9" class="st5" width="16" height="16"/>
	<rect x="557.4" y="91.8" class="st5" width="16" height="16"/>
	<rect x="469.6" y="136.7" class="st6" width="16" height="16"/>
	<rect x="499.1" y="124.9" class="st6" width="16" height="16"/>
	<rect x="510.3" y="145.3" class="st6" width="16" height="16"/>
	<g>
		<g>
			<g>
				<g>
					<g>
						<g>
							<path class="st7" d="M432.2,157.8c0.5-0.3,1-0.6,1.5-0.9l0.8-0.5l1-0.5l1.9-1l2.2-1.1c2.9-1.4,6.5-2.9,10.1-4.5
								c7.4-3.3,15.7-7.1,23.7-12.2l-24.1-38c-5.1,3.3-11,6.1-17.9,9.1c-3.5,1.6-7.1,3.1-11.2,5l-3.1,1.5l-3.3,1.7l-1.6,0.9l-1.7,1
								l-3.4,2.1L432.2,157.8z"/>
						</g>
						<path class="st8" d="M450.1,122.5l2,4l3.9-2c1.3-0.7,2.6-1.5,3.9-2.2l-2.3-3.9c-1.2,0.7-2.4,1.5-3.7,2.1L450.1,122.5z"/>
						<path class="st8" d="M436,129l1.8,4.1c2.6-1.2,5.3-2.3,8-3.5l-1.9-4.1C441.3,126.6,438.6,127.8,436,129z"/>
						<path class="st8" d="M421.9,135.9l2.3,3.9c2.4-1.4,4.9-2.7,7.5-3.9l-1.9-4.1C427.1,133,424.4,134.4,421.9,135.9z"/>
					</g>
				</g>
				<g>
					<g>
						<g>
							<path class="st7" d="M473.4,137c8-5.1,15.9-11.4,22.5-18.7c6.6-7.3,12.1-15.4,16.7-23.6l-39.6-21.3
								c-3,5.3-6.3,10.3-10.2,14.5c-3.9,4.3-8.3,7.8-13.4,11.1L473.4,137z"/>
						</g>
						<path class="st8" d="M485,93.4l3.7,2.6c0.8-1.2,1.7-2.4,2.6-3.7l2.3-3.8l-3.9-2.3l-2.2,3.7C486.7,91.1,485.8,92.2,485,93.4z"
							/>
						<path class="st8" d="M475.2,105.1l3.2,3.2l3.1-3.2c1-1.1,1.9-2.3,2.9-3.4l-3.5-2.9c-0.9,1.1-1.8,2.2-2.8,3.2L475.2,105.1z"/>
						<path class="st8" d="M463.4,114.7l2.5,3.7c1.3-0.8,2.4-1.8,3.6-2.6c1.2-0.9,2.4-1.8,3.5-2.8l-2.9-3.5c-1,1-2.2,1.8-3.3,2.6
							C465.7,113.1,464.6,114,463.4,114.7z"/>
					</g>
				</g>
			</g>
		</g>
	</g>
	<rect x="540" y="123.1" class="st9" width="9.4" height="5.3"/>
	<rect x="560.6" y="139.3" class="st9" width="9.4" height="5.3"/>
	<polyline class="st0" points="419.7,12 407.7,0 395.7,12 	"/>
	<polyline class="st0" points="581,188.2 593.8,176.2 581,164.2 	"/>
</g>
</svg>
